# xmcd
#
# Track frame offsets:
#	150
#	10007
#	22387
#	33804
#	52111
#	61371
#	75519
#	85220
#	95259
#	106727
#	114427
#	126104
#	136066
#	145690
#	158017
#	168317
#
# Disc length: 2393 seconds
#
# Revision: 0
# Processed by: cddbd v1.5.2PL0 Copyright (c) Steve Scherf et al.
# Submitted via: EasyCDDAExtractor 11.1.0.1
#
DISCID=bf095710
DTITLE=Various Artist - Country Legends
DYEAR=2008
DGENRE=country
TTITLE0=Glen Campbell - Gentle on my mind
TTITLE1=Kenny Rogers - Ruben James
TTITLE2=Bobby Bare - That's how I got to Memphis
TTITLE3=Roy Clark - Mary Ann regrets
TTITLE4=Jeannie C Riley - The gilr most likely
TTITLE5=Ed Bruce - Behind closed doors
TTITLE6=Willie Nelson - The healing hands of time
TTITLE7=Patsy Cline - Three cigarettes in an ashtray
TTITLE8=Roger Miller - Little green apples
TTITLE9=George Jones - Jambalaya
TTITLE10=Barbara Fairchild - You can't put the city in a country girl
TTITLE11=Dave Dudley - Oh lonesome me
TTITLE12=Wiliie Nelson - Let's pretend
TTITLE13=Ed Bruce - She even woke me up to say goddbye
TTITLE14=Waylon Jennings - White lightning
TTITLE15=George Jones - Window up above
EXTD=
EXTT0=
EXTT1=
EXTT2=
EXTT3=
EXTT4=
EXTT5=
EXTT6=
EXTT7=
EXTT8=
EXTT9=
EXTT10=
EXTT11=
EXTT12=
EXTT13=
EXTT14=
EXTT15=
PLAYORDER=
